<svg xmlns="http://www.w3.org/2000/svg" xmlns:xlink="http://www.w3.org/1999/xlink" width="816" zoomAndPan="magnify" viewBox="0 0 612 199.499995" height="266" preserveAspectRatio="xMidYMid meet" version="1.0"><defs><g/><clipPath id="4009f65228"><path d="M 0.765625 7 L 610 7 L 610 173 L 0.765625 173 Z M 0.765625 7 " clip-rule="nonzero"/></clipPath><clipPath id="30d0427fe9"><rect x="0" width="610" y="0" height="166"/></clipPath></defs><g clip-path="url(#4009f65228)"><g transform="matrix(1, 0, 0, 1, 0.000000000000000222, 7)"><g clip-path="url(#30d0427fe9)"><g fill="#00a499" fill-opacity="1"><g transform="translate(0.765008, 134.486404)"><g><path d="M 34.390625 -86.890625 L 48.875 -86.890625 L 48.875 0 L 38.015625 0 L 38.015625 -77.828125 L 12.671875 -56.109375 L 7.234375 -63.359375 Z M 34.390625 -86.890625 "/></g></g><g transform="translate(56.877806, 134.486404)"><g><path d="M 34.390625 -86.890625 L 48.875 -86.890625 L 48.875 0 L 38.015625 0 L 38.015625 -77.828125 L 12.671875 -56.109375 L 7.234375 -63.359375 Z M 34.390625 -86.890625 "/></g></g><g transform="translate(112.990604, 134.486404)"><g><path d="M 65.609375 -48.875 C 71.566406 -48.875 76.675781 -48.628906 80.9375 -48.140625 C 85.195312 -47.648438 88.789062 -46.921875 91.71875 -45.953125 C 94.644531 -44.992188 96.972656 -43.796875 98.703125 -42.359375 C 100.441406 -40.929688 101.78125 -39.300781 102.71875 -37.46875 C 103.664062 -35.644531 104.28125 -33.597656 104.5625 -31.328125 C 104.84375 -29.066406 104.984375 -26.617188 104.984375 -23.984375 C 104.984375 -21.347656 104.742188 -18.867188 104.265625 -16.546875 C 103.796875 -14.222656 102.957031 -12.097656 101.75 -10.171875 C 100.550781 -8.253906 98.914062 -6.539062 96.84375 -5.03125 C 94.769531 -3.519531 92.128906 -2.238281 88.921875 -1.1875 C 85.710938 -0.132812 81.851562 0.660156 77.34375 1.203125 C 72.84375 1.753906 67.578125 2.03125 61.546875 2.03125 L 47.0625 2.03125 C 41.632812 2.03125 36.882812 1.820312 32.8125 1.40625 C 28.738281 1 25.226562 0.375 22.28125 -0.46875 C 19.34375 -1.320312 16.910156 -2.398438 14.984375 -3.703125 C 13.066406 -5.003906 11.53125 -6.53125 10.375 -8.28125 C 9.226562 -10.039062 8.425781 -12.039062 7.96875 -14.28125 C 7.519531 -16.519531 7.296875 -19 7.296875 -21.71875 L 18.15625 -21.71875 C 18.15625 -18.320312 18.644531 -15.660156 19.625 -13.734375 C 20.601562 -11.816406 22.222656 -10.375 24.484375 -9.40625 C 26.753906 -8.445312 29.726562 -7.84375 33.40625 -7.59375 C 37.082031 -7.351562 41.632812 -7.234375 47.0625 -7.234375 L 61.546875 -7.234375 C 67.878906 -7.234375 73.140625 -7.535156 77.328125 -8.140625 C 81.515625 -8.742188 84.847656 -9.707031 87.328125 -11.03125 C 89.816406 -12.351562 91.570312 -14.078125 92.59375 -16.203125 C 93.613281 -18.335938 94.125 -20.929688 94.125 -23.984375 C 94.125 -27.035156 93.773438 -29.578125 93.078125 -31.609375 C 92.378906 -33.648438 91 -35.273438 88.9375 -36.484375 C 86.882812 -37.691406 83.992188 -38.550781 80.265625 -39.0625 C 76.535156 -39.570312 71.648438 -39.828125 65.609375 -39.828125 L 50.6875 -39.828125 C 44.039062 -39.828125 38.351562 -40.070312 33.625 -40.5625 C 28.894531 -41.050781 24.925781 -41.753906 21.71875 -42.671875 C 18.507812 -43.597656 15.941406 -44.75 14.015625 -46.125 C 12.097656 -47.5 10.640625 -49.070312 9.640625 -50.84375 C 8.640625 -52.625 7.988281 -54.597656 7.6875 -56.765625 C 7.382812 -58.929688 7.234375 -61.273438 7.234375 -63.796875 C 7.234375 -66.441406 7.46875 -68.894531 7.9375 -71.15625 C 8.414062 -73.414062 9.296875 -75.457031 10.578125 -77.28125 C 11.859375 -79.113281 13.609375 -80.75 15.828125 -82.1875 C 18.054688 -83.625 20.914062 -84.820312 24.40625 -85.78125 C 27.894531 -86.738281 32.085938 -87.460938 36.984375 -87.953125 C 41.890625 -88.441406 47.660156 -88.6875 54.296875 -88.6875 L 65.15625 -88.6875 C 70.59375 -88.6875 75.347656 -88.488281 79.421875 -88.09375 C 83.492188 -87.695312 87 -87.070312 89.9375 -86.21875 C 92.875 -85.375 95.3125 -84.320312 97.25 -83.0625 C 99.195312 -81.800781 100.742188 -80.289062 101.890625 -78.53125 C 103.046875 -76.78125 103.847656 -74.789062 104.296875 -72.5625 C 104.753906 -70.34375 104.984375 -67.875 104.984375 -65.15625 L 94.125 -65.15625 C 94.125 -68.550781 93.632812 -71.207031 92.65625 -73.125 C 91.675781 -75.050781 90.050781 -76.492188 87.78125 -77.453125 C 85.519531 -78.421875 82.539062 -79.023438 78.84375 -79.265625 C 75.15625 -79.515625 70.59375 -79.640625 65.15625 -79.640625 L 54.296875 -79.640625 C 47.054688 -79.640625 41.097656 -79.382812 36.421875 -78.875 C 31.742188 -78.363281 28.046875 -77.503906 25.328125 -76.296875 C 22.617188 -75.097656 20.734375 -73.476562 19.671875 -71.4375 C 18.617188 -69.40625 18.09375 -66.859375 18.09375 -63.796875 C 18.09375 -61.910156 18.222656 -60.234375 18.484375 -58.765625 C 18.753906 -57.296875 19.296875 -56.003906 20.109375 -54.890625 C 20.921875 -53.785156 22.0625 -52.851562 23.53125 -52.09375 C 25 -51.34375 26.941406 -50.722656 29.359375 -50.234375 C 31.773438 -49.742188 34.722656 -49.394531 38.203125 -49.1875 C 41.691406 -48.976562 45.851562 -48.875 50.6875 -48.875 Z M 65.609375 -48.875 "/></g></g><g transform="translate(225.216199, 134.486404)"><g><path d="M 10.859375 -86.890625 L 21.71875 -86.890625 L 21.71875 0 L 10.859375 0 Z M 10.859375 -86.890625 "/></g></g><g transform="translate(257.797824, 134.486404)"><g><path d="M 68.390625 -45.8125 L 119.46875 0 L 104.078125 0 L 60.8125 -38.796875 L 19 0 L 3.625 0 L 53 -45.8125 L 7.234375 -86.890625 L 22.625 -86.890625 L 60.53125 -52.828125 L 97.234375 -86.890625 L 112.625 -86.890625 Z M 68.390625 -45.8125 "/></g></g><g transform="translate(380.883961, 134.486404)"><g><path d="M 7.234375 -10.859375 C 7.234375 -13.117188 7.289062 -15.367188 7.40625 -17.609375 C 7.519531 -19.859375 7.773438 -22.007812 8.171875 -24.0625 C 8.566406 -26.125 9.148438 -28.054688 9.921875 -29.859375 C 10.703125 -31.671875 11.757812 -33.265625 13.09375 -34.640625 C 14.4375 -36.015625 16.101562 -37.15625 18.09375 -38.0625 C 20.09375 -38.96875 22.507812 -39.554688 25.34375 -39.828125 L 83.265625 -45.25 C 85.078125 -45.40625 86.660156 -45.671875 88.015625 -46.046875 C 89.367188 -46.421875 90.488281 -47.144531 91.375 -48.21875 C 92.257812 -49.289062 92.925781 -50.863281 93.375 -52.9375 C 93.832031 -55.019531 94.0625 -57.867188 94.0625 -61.484375 C 94.0625 -64.503906 93.832031 -67.050781 93.375 -69.125 C 92.925781 -71.195312 92.175781 -72.910156 91.125 -74.265625 C 90.070312 -75.628906 88.648438 -76.664062 86.859375 -77.375 C 85.066406 -78.09375 82.832031 -78.617188 80.15625 -78.953125 C 77.476562 -79.296875 74.304688 -79.492188 70.640625 -79.546875 C 66.984375 -79.609375 62.742188 -79.640625 57.921875 -79.640625 C 51.285156 -79.640625 45.691406 -79.515625 41.140625 -79.265625 C 36.597656 -79.023438 32.847656 -78.582031 29.890625 -77.9375 C 26.929688 -77.300781 24.660156 -76.4375 23.078125 -75.34375 C 21.492188 -74.25 20.332031 -72.820312 19.59375 -71.0625 C 18.863281 -69.3125 18.429688 -67.210938 18.296875 -64.765625 C 18.160156 -62.316406 18.09375 -59.429688 18.09375 -56.109375 L 7.234375 -56.109375 C 7.234375 -61.535156 7.734375 -66.109375 8.734375 -69.828125 C 9.734375 -73.546875 11.203125 -76.609375 13.140625 -79.015625 C 15.085938 -81.429688 17.492188 -83.296875 20.359375 -84.609375 C 23.222656 -85.929688 26.53125 -86.894531 30.28125 -87.5 C 34.039062 -88.101562 38.226562 -88.453125 42.84375 -88.546875 C 47.46875 -88.640625 52.492188 -88.6875 57.921875 -88.6875 C 63.347656 -88.6875 68.273438 -88.601562 72.703125 -88.4375 C 77.140625 -88.269531 81.101562 -87.882812 84.59375 -87.28125 C 88.082031 -86.675781 91.109375 -85.785156 93.671875 -84.609375 C 96.234375 -83.441406 98.351562 -81.847656 100.03125 -79.828125 C 101.707031 -77.816406 102.953125 -75.320312 103.765625 -72.34375 C 104.578125 -69.363281 104.984375 -65.765625 104.984375 -61.546875 C 104.984375 -57.921875 104.71875 -54.628906 104.1875 -51.671875 C 103.664062 -48.710938 102.722656 -46.140625 101.359375 -43.953125 C 100.003906 -41.765625 98.15625 -40.007812 95.8125 -38.6875 C 93.476562 -37.363281 90.503906 -36.535156 86.890625 -36.203125 L 28.96875 -30.765625 C 26.207031 -30.503906 24.09375 -29.992188 22.625 -29.234375 C 21.15625 -28.484375 20.082031 -27.285156 19.40625 -25.640625 C 18.726562 -24.003906 18.335938 -21.847656 18.234375 -19.171875 C 18.140625 -16.492188 18.09375 -13.117188 18.09375 -9.046875 L 103.171875 -9.046875 L 103.171875 0 L 7.234375 0 Z M 7.234375 -10.859375 "/></g></g><g transform="translate(493.109557, 134.486404)"><g><path d="M 94.125 -18.09375 L 94.125 0 L 83.265625 0 L 83.265625 -18.09375 L 7.234375 -18.09375 L 7.234375 -28.96875 L 79.640625 -86.890625 L 94.125 -86.890625 L 94.125 -27.15625 L 108.609375 -27.15625 L 108.609375 -18.09375 Z M 83.265625 -27.15625 L 83.265625 -79.640625 L 18.09375 -27.15625 Z M 83.265625 -27.15625 "/></g></g></g></g></g></g></svg>